<?xml version="1.0" encoding="utf-8"?>
<svg id="Layer_1" data-name="Layer 1" viewBox="-13.96 -22.429 1357.34 1426.642" xmlns="http://www.w3.org/2000/svg">
  <defs>
    <style>.cls-1{fill:#b78f6d;}</style>
  </defs>
  <path class="cls-1" d="M 965.695 1086.212 L 965.695 876.832 L 872.455 841.892 L 872.455 323.822 L 782.005 357.602 L 782.005 136.942 L 548.815 8.072 L 548.815 393.892 L 596.395 376.132 L 596.395 88.722 L 734.395 165.012 L 734.395 375.372 L 689.765 392.022 L 689.765 195.022 L 641.695 169.192 L 641.695 409.982 L 596.395 426.892 L 548.815 444.662 L 458.345 478.442 L 458.345 686.832 L 367.425 652.772 L 367.425 1086.212 L -1.935 1086.212 L -1.935 1136.152 L 689.695 1136.152 L 689.695 875.802 L 641.375 857.892 L 641.375 1086.232 L 415.005 1086.232 L 415.005 721.432 L 458.345 737.672 L 505.925 755.472 L 550.695 772.222 L 550.695 983.992 L 505.925 983.992 L 505.925 807.652 L 458.345 790.012 L 458.345 1031.572 L 598.275 1031.572 L 598.275 790.032 L 638.125 804.962 L 765.195 852.542 L 918.195 909.822 L 918.195 1086.212 L 781.075 1086.212 L 781.075 961.482 L 824.865 977.112 L 824.865 1031.572 L 872.455 1031.572 L 872.455 943.572 L 733.455 892.022 L 733.455 1136.142 L 1331.285 1136.142 L 1331.285 1086.202 Z M 824.825 824.072 L 688.925 773.182 L 688.925 544.462 L 734.385 527.792 L 734.385 739.472 L 781.965 757.292 L 781.965 459.672 L 641.375 511.212 L 641.375 755.372 L 522.605 710.892 L 505.925 704.672 L 505.925 511.472 L 548.815 495.472 L 548.815 669.892 L 596.155 687.642 L 596.155 477.792 L 824.865 392.382 Z M 201.595 1203.762 L 218.095 1203.762 L 218.095 1279.762 L 268.255 1279.762 L 268.255 1154.562 L 115.615 1154.562 L 115.615 1203.792 L 151.555 1203.792 L 151.555 1305.562 L 48.105 1305.562 L 48.105 1203.762 L 84.045 1203.762 L 84.045 1154.532 L -1.955 1154.532 L -1.955 1354.752 L 201.595 1354.752 Z M 76.365 1277.762 L 123.295 1277.762 L 123.295 1231.592 L 76.365 1231.592 Z M 1207.435 1307.692 L 1052.435 1307.692 L 1052.435 1278.692 L 1191.175 1278.692 L 1191.175 1154.532 L 1144.045 1154.532 L 1144.045 1231.532 L 1005.305 1231.532 L 1005.305 1354.732 L 1256.695 1354.732 L 1256.695 1280.032 L 1331.375 1280.032 L 1331.375 1154.532 L 1207.435 1154.532 Z M 1255.375 1203.562 L 1283.375 1203.562 L 1283.375 1231.562 L 1255.375 1231.562 Z M 502.165 1154.562 L 502.165 1202.622 L 788.375 1202.622 L 788.375 1354.782 L 989.765 1354.782 L 989.765 1231.582 L 911.765 1231.582 L 911.765 1201.672 L 1120.215 1201.672 L 1120.215 1154.562 L 864.695 1154.562 L 864.695 1278.692 L 942.695 1278.692 L 942.695 1307.692 L 836.425 1307.692 L 836.425 1154.532 Z M 721.595 1354.782 L 772.825 1354.782 L 772.825 1298.832 L 721.595 1298.832 Z M 772.825 1231.582 L 721.595 1231.582 L 721.595 1282.812 L 772.825 1282.812 Z M 638.905 1282.812 L 638.905 1231.582 L 577.775 1231.582 L 577.775 1282.812 Z M 432.905 1154.562 L 432.905 1354.782 L 702.145 1354.782 L 702.145 1231.582 L 653.755 1231.582 L 653.755 1306.372 L 479.895 1306.372 L 479.895 1154.532 Z M 502.165 1282.812 L 563.285 1282.812 L 563.285 1231.582 L 502.165 1231.582 Z M 1266.545 1354.812 L 1331.325 1354.812 L 1331.325 1290.032 L 1266.545 1290.032 Z M 218.095 1305.532 L 218.095 1354.752 L 412.405 1354.752 L 412.405 1154.532 L 287.225 1154.532 L 287.225 1279.732 L 363.225 1279.732 L 363.225 1305.532 Z M 336.455 1230.532 L 336.455 1203.792 L 363.185 1203.792 L 363.185 1230.532 Z M -1.935 1373.712 L 1331.325 1373.712 L 1331.325 1368.772 L -1.935 1368.772 Z" style="fill: rgb(209, 166, 23);"/>
</svg>